<?xml version="1.0" encoding="UTF-8"?>
<svg id="_图层_2" data-name="图层 2" xmlns="http://www.w3.org/2000/svg" viewBox="0 0 724.58 94.75">
  <defs>
    <style>
      .cls-1, .cls-2 {
        stroke-width: 0px;
      }

      .cls-2 {
        fill: #1a1a1a;
      }
    </style>
  </defs>
  <g id="_图层_3" data-name="图层 3">
    <g>
      <g>
        <polygon class="cls-2" points="71.06 9.85 59.46 14.68 59.46 80.07 71.06 84.89 94.75 94.75 94.75 0 71.06 9.85"/>
        <polygon class="cls-2" points="23.69 18.1 23.69 77.87 47.38 94.75 47.38 18.1 47.38 0 23.69 16.88 23.69 18.1"/>
        <polygon class="cls-2" points="0 18.1 0 76.65 0 76.67 11.76 94.59 11.76 76.65 11.76 18.1 11.76 0 0 18.08 0 18.1"/>
      </g>
      <g>
        <path class="cls-1" d="M385.88,79.01c-3.9,0-7.5-.71-10.82-2.14-3.32-1.43-6.17-3.42-8.56-5.97-2.39-2.55-4.13-5.53-5.23-8.93l9.3-4.03c1.48,3.51,3.62,6.27,6.42,8.27,2.8,2,5.95,3,9.46,3,1.98,0,3.69-.32,5.14-.95,1.45-.63,2.58-1.49,3.37-2.59.79-1.1,1.19-2.41,1.19-3.95,0-1.81-.53-3.3-1.6-4.48-1.07-1.18-2.67-2.1-4.81-2.76l-11.77-3.79c-4.77-1.48-8.37-3.7-10.78-6.67-2.41-2.96-3.62-6.45-3.62-10.45,0-3.51.86-6.61,2.59-9.3,1.73-2.69,4.14-4.79,7.24-6.3,3.1-1.51,6.65-2.26,10.66-2.26,3.68,0,7.05.65,10.12,1.93,3.07,1.29,5.72,3.07,7.94,5.35,2.22,2.28,3.88,4.95,4.98,8.02l-9.22,4.11c-1.21-3.07-3.02-5.44-5.43-7.12-2.41-1.67-5.21-2.51-8.39-2.51-1.87,0-3.51.32-4.94.95-1.43.63-2.54,1.51-3.33,2.63-.8,1.13-1.19,2.46-1.19,3.99,0,1.7.55,3.2,1.65,4.48,1.1,1.29,2.77,2.29,5.02,3l11.27,3.54c4.88,1.59,8.54,3.79,10.99,6.58,2.44,2.8,3.66,6.25,3.66,10.37,0,3.51-.91,6.61-2.72,9.3-1.81,2.69-4.31,4.8-7.49,6.34-3.18,1.54-6.89,2.3-11.11,2.3Z"/>
        <g>
          <g>
            <polygon class="cls-1" points="317.52 61.43 307.61 33.26 298.06 33.26 288.07 61.45 278.72 33.26 267.37 33.26 282.76 78.03 292.3 78.03 302.82 47.8 313.2 78.03 322.83 78.03 338.22 33.26 326.87 33.26 317.52 61.43"/>
            <path class="cls-1" d="M450.15,35.32c-3.57-2.03-7.54-3.04-11.93-3.04s-8.45,1.02-12.01,3.04c-3.57,2.03-6.41,4.8-8.52,8.31-2.11,3.51-3.17,7.52-3.17,12.01s1.06,8.5,3.17,12.02c2.11,3.51,4.96,6.28,8.56,8.31,3.59,2.03,7.58,3.05,11.97,3.05s8.28-1.01,11.85-3.05c3.57-2.03,6.42-4.8,8.56-8.31,2.14-3.51,3.21-7.52,3.21-12.02s-1.06-8.57-3.17-12.06c-2.11-3.48-4.95-6.24-8.52-8.27ZM448.96,62.6c-1.07,2.06-2.52,3.66-4.36,4.81-1.84,1.15-3.96,1.73-6.38,1.73s-4.64-.58-6.5-1.73c-1.87-1.15-3.33-2.76-4.4-4.81-1.07-2.06-1.6-4.37-1.6-6.95s.53-4.95,1.6-6.95c1.07-2,2.54-3.59,4.4-4.77,1.86-1.18,4.03-1.77,6.5-1.77s4.54.59,6.38,1.77c1.84,1.18,3.29,2.77,4.36,4.77,1.07,2,1.6,4.32,1.6,6.95s-.53,4.9-1.6,6.95Z"/>
            <path class="cls-1" d="M491.13,15.74c-3.46,0-6.45.63-8.97,1.89-2.52,1.26-4.48,3.09-5.88,5.47-1.4,2.39-2.1,5.28-2.1,8.68v1.48h-7.9v9.63h7.9v35.14h10.78v-35.14h9.96v-9.63h-9.96v-1.48c0-2.25.66-3.91,1.98-4.98,1.32-1.07,3.18-1.6,5.6-1.6.38,0,.81.01,1.28.04.47.03.97.1,1.52.21v-9.3c-.55-.11-1.22-.21-2.02-.29-.8-.08-1.52-.12-2.18-.12Z"/>
            <path class="cls-1" d="M525.4,69.06c-1.76,0-3.2-.27-4.32-.82-1.12-.55-1.95-1.34-2.47-2.39-.52-1.04-.78-2.3-.78-3.79v-19.17h10.29v-9.63h-10.29v-10.2l-18.52,19.83h7.74v19.75c0,5.05,1.39,8.96,4.16,11.73,2.77,2.77,6.68,4.16,11.73,4.16.82,0,1.73-.06,2.72-.16.99-.11,1.86-.22,2.63-.33v-9.22c-.49.06-1,.11-1.52.16-.52.06-.97.08-1.36.08Z"/>
            <polygon class="cls-1" points="582.55 61.43 572.64 33.26 563.09 33.26 553.1 61.45 543.75 33.26 532.4 33.26 547.79 78.03 557.33 78.03 567.85 47.8 578.24 78.03 587.86 78.03 603.25 33.26 591.9 33.26 582.55 61.43"/>
            <path class="cls-1" d="M636.78,34.29c-2.8-1.34-6.04-2.02-9.71-2.02-3.02,0-5.82.49-8.39,1.48-2.58.99-4.81,2.35-6.71,4.07-1.89,1.73-3.28,3.77-4.16,6.13l8.8,4.28c.82-2.03,2.13-3.66,3.91-4.9,1.78-1.23,3.83-1.85,6.13-1.85,2.47,0,4.46.65,5.97,1.93,1.51,1.29,2.26,2.89,2.26,4.81v1.45l-13.33,2.17c-3.51.55-6.42,1.48-8.72,2.8-2.3,1.32-4.01,2.95-5.1,4.9-1.1,1.95-1.65,4.16-1.65,6.62s.63,4.84,1.89,6.79c1.26,1.95,3.05,3.44,5.35,4.48,2.3,1.04,5.02,1.56,8.15,1.56,2.47,0,4.72-.34,6.75-1.03,2.03-.69,3.84-1.67,5.43-2.96.64-.52,1.24-1.11,1.81-1.73v4.73h10.2v-29.79c0-3.18-.78-5.97-2.35-8.35-1.56-2.39-3.75-4.25-6.54-5.6ZM633.45,65.36c-.96,1.7-2.3,3.03-4.03,3.99-1.73.96-3.72,1.44-5.97,1.44-1.76,0-3.22-.45-4.4-1.36-1.18-.91-1.77-2.13-1.77-3.66s.52-2.88,1.56-3.87c1.04-.99,2.63-1.67,4.77-2.06l11.27-1.92v1.83c0,2.03-.48,3.9-1.44,5.6Z"/>
            <path class="cls-1" d="M662.32,40.04v-6.77h-10.12v44.77h10.78v-24.94c0-3.4.93-6.05,2.8-7.94,1.86-1.89,4.33-2.84,7.41-2.84h3.87v-9.55h-2.63c-8.88,0-11.09,5.06-12.1,7.27Z"/>
          </g>
          <path class="cls-1" d="M241.33,32.26c-12.36,0-22.02,10-22.02,23.31s9.83,23.45,21.97,23.45c8.31,0,17.1-3.46,20.33-11.12l-8.8-4.11c-6.3,9.74-22.05,6.44-22.65-5.1h32.61c2.7-14.79-7.18-26.43-21.43-26.43ZM230.5,50.47c.52-4.95,5.34-9.3,10.84-9.3,6.14,0,10.24,4.31,10.48,9.3h-21.32Z"/>
          <path class="cls-1" d="M702.7,32.26c-12.36,0-22.02,10-22.02,23.31s9.83,23.45,21.97,23.45c8.31,0,17.1-3.46,20.33-11.12l-8.8-4.11c-6.3,9.74-22.05,6.44-22.65-5.1h32.61c2.7-14.79-7.18-26.43-21.43-26.43ZM691.88,50.47c.52-4.95,5.34-9.3,10.84-9.3,6.14,0,10.24,4.31,10.48,9.3h-21.32Z"/>
          <polygon class="cls-1" points="198.98 16.72 198.98 54.74 169.77 16.72 161.04 16.72 161.04 78.03 172.23 78.03 172.23 40.01 201.45 78.03 210.17 78.03 210.17 16.72 198.98 16.72"/>
        </g>
      </g>
    </g>
  </g>
</svg>